name analog
datacolumns 19
datarows 23
range 0.0 0.011
endheader
time	ground_force_vx	ground_force_vy	ground_force_vz	ground_force_px	ground_force_py	ground_force_pz	l_ground_force_vx	l_ground_force_vy	l_ground_force_vz	l_ground_force_px	l_ground_force_py	l_ground_force_pz	ground_torque_x	ground_torque_y	ground_torque_z	l_ground_torque_x	l_ground_torque_y	l_ground_torque_z
0.0	-0.0	-0.0	-0.0	-5.843105316162109	21.258514404296875	-360.42230224609375	3.947806596755981	-17.9736385345459	-406.4096984863281	-0.0	-0.0	-0.0	-0.0	-0.0	-0.0	141371.03125	-8899.583984375	-891.6788330078125
0.0005	-0.0	-0.0	-0.0	-5.8878936767578125	21.61582565307617	-362.5382385253906	4.25833797454834	-17.44320297241211	-406.76165771484375	-0.0	-0.0	-0.0	-0.0	-0.0	-0.0	140748.390625	-8998.21875	-787.4622192382812
0.001	-0.0	-0.0	-0.0	-5.8454179763793945	21.47981834411621	-364.484130859375	3.814563751220703	-17.222640991210938	-403.6203308105469	-0.0	-0.0	-0.0	-0.0	-0.0	-0.0	140304.5625	-8935.8203125	-936.1519165039062
0.0015	-0.0	-0.0	-0.0	-5.755903244018555	21.79128837585449	-364.8291320800781	3.681511163711548	-17.090259552001953	-402.0481262207031	-0.0	-0.0	-0.0	-0.0	-0.0	-0.0	139734.9375	-8885.53125	-936.141357421875
0.002	-0.0	-0.0	-0.0	-5.665305137634277	22.15021705627441	-367.1288146972656	3.548431396484375	-17.0463924407959	-401.0027465820313	-0.0	-0.0	-0.0	-0.0	-0.0	-0.0	139071.375	-8573.044921875	-995.628662109375
0.0025	-0.0	-0.0	-0.0	-5.799655914306641	22.23949241638184	-368.3551025390625	3.2825491428375244	-16.781370162963867	-398.9071960449219	-0.0	-0.0	-0.0	-0.0	-0.0	-0.0	138890.703125	-8472.49609375	-1129.0777587890625
0.003	-0.0	-0.0	-0.0	-5.623547077178955	22.32661819458008	-369.9538269042969	2.883658170700073	-16.691688537597656	-398.9035339355469	-0.0	-0.0	-0.0	-0.0	-0.0	-0.0	138456.34375	-8638.84375	-1203.6446533203125
0.0035	-0.0	-0.0	-0.0	-5.352630615234375	22.193470001220703	-371.2068481445313	2.308030128479004	-16.559545516967773	-396.63421630859375	-0.0	-0.0	-0.0	-0.0	-0.0	-0.0	137985.3125	-8468.5478515625	-1471.02099609375
0.004	-0.0	-0.0	-0.0	-5.488450527191162	23.130006790161133	-372.4255981445313	1.9956870079040527	-16.42722511291504	-396.46527099609375	-0.0	-0.0	-0.0	-0.0	-0.0	-0.0	137583.109375	-8339.861328125	-1604.4068603515625
0.0045000000000000005	-0.0	-0.0	-0.0	-5.311700344085693	23.166561126708984	-372.95220947265625	1.4201170206069946	-16.16286849975586	-394.5442810058594	-0.0	-0.0	-0.0	-0.0	-0.0	-0.0	137335.546875	-8112.0224609375	-1693.69677734375
0.005	-0.0	-0.0	-0.0	-5.1758131980896	23.39432716369629	-375.7644348144531	1.109323501586914	-16.342132568359375	-394.8939208984375	-0.0	-0.0	-0.0	-0.0	-0.0	-0.0	136849.75	-8302.1279296875	-1708.8974609375
0.0055	-0.0	-0.0	-0.0	-4.820767879486084	23.392484664916992	-374.9106140136719	1.10742449760437	-16.20848274230957	-393.6588745117188	-0.0	-0.0	-0.0	-0.0	-0.0	-0.0	136776.1875	-8244.3427734375	-1962.132568359375
0.006	-0.0	-0.0	-0.0	-4.773685455322266	23.497848510742188	-376.9940185546875	0.6670085191726685	-16.029829025268555	-392.2740478515625	-0.0	-0.0	-0.0	-0.0	-0.0	-0.0	136630.90625	-8006.85791015625	-2036.518798828125
0.006500000000000001	-0.0	-0.0	-0.0	-4.414948463439941	23.9305419921875	-377.3919982910156	0.4423384368419647	-16.29716682434082	-392.6090393066406	-0.0	-0.0	-0.0	-0.0	-0.0	-0.0	136583.359375	-7846.2099609375	-2125.0068359375
0.007	-0.0	-0.0	-0.0	-4.414887428283691	24.33466339111328	-379.11822509765625	0.0887107849121093	-16.47399139404297	-393.6763610839844	-0.0	-0.0	-0.0	-0.0	-0.0	-0.0	136560.578125	-8010.56494140625	-2199.26025390625
0.0075	-0.0	-0.0	-0.0	-4.105894565582275	23.969451904296875	-379.15179443359375	0.0916736721992492	-16.20629119873047	-392.97308349609375	-0.0	-0.0	-0.0	-0.0	-0.0	-0.0	136509.671875	-7862.767578125	-2184.60595703125
0.008	-0.0	-0.0	-0.0	-4.147134780883789	24.474365234375	-379.5055541992188	0.2661323547363281	-16.471208572387695	-393.4876708984375	-0.0	-0.0	-0.0	-0.0	-0.0	-0.0	136656.640625	-7884.5361328125	-2154.37353515625
0.0085	-0.0	-0.0	-0.0	-4.19777774810791	24.371065139770508	-378.0936279296875	0.264421284198761	-16.24608039855957	-392.8023071289063	-0.0	-0.0	-0.0	-0.0	-0.0	-0.0	136651.265625	-7884.84912109375	-2170.5576171875
0.009000000000000001	-0.0	-0.0	-0.0	-3.92268705368042	24.55156517028809	-380.2033081054688	0.26797616481781	-16.647720336914062	-393.1520080566406	-0.0	-0.0	-0.0	-0.0	-0.0	-0.0	136668.71875	-7768.2626953125	-1963.7142333984373
0.0095	-0.0	-0.0	-0.0	-3.83337926864624	24.32992935180664	-378.41644287109375	0.664360523223877	-16.604476928710938	-393.1523742675781	-0.0	-0.0	-0.0	-0.0	-0.0	-0.0	136926.15625	-7920.89208984375	-2020.8997802734373
0.01	-0.0	-0.0	-0.0	-4.006017684936523	24.421730041503903	-379.8394470214844	0.7983970642089844	-16.871519088745117	-392.77093505859375	-0.0	-0.0	-0.0	-0.0	-0.0	-0.0	136909.75	-7825.68310546875	-2051.930908203125
0.0105	-0.0	-0.0	-0.0	-3.962579488754273	24.375707626342773	-379.5091552734375	0.8460251688957214	-16.649723052978516	-394.8990478515625	-0.0	-0.0	-0.0	-0.0	-0.0	-0.0	137359.453125	-7852.310546875	-2094.577392578125
0.011	-0.0	-0.0	-0.0	-4.100645542144775	24.056102752685547	-378.2677307128906	0.7891824245452881	-16.656665802001953	-395.749755859375	-0.0	-0.0	-0.0	-0.0	-0.0	-0.0	137165.6875	-8119.31787109375	-2004.8367919921875
